G04 EAGLE Gerber RS-274X export*
G75*
%MOMM*%
%FSLAX34Y34*%
%LPD*%
%INTop Copper*%
%IPPOS*%
%AMOC8*
5,1,8,0,0,1.08239X$1,22.5*%
G01*
%ADD10C,1.524000*%
%ADD11R,0.850000X1.190000*%
%ADD12C,0.609600*%

G36*
X18320Y10172D02*
X18320Y10172D01*
X18391Y10174D01*
X18440Y10192D01*
X18492Y10200D01*
X18555Y10234D01*
X18622Y10259D01*
X18663Y10291D01*
X18709Y10316D01*
X18758Y10368D01*
X18814Y10412D01*
X18843Y10456D01*
X18878Y10494D01*
X18909Y10559D01*
X18947Y10619D01*
X18960Y10670D01*
X18982Y10717D01*
X18990Y10788D01*
X19007Y10858D01*
X19003Y10910D01*
X19009Y10961D01*
X18994Y11032D01*
X18988Y11103D01*
X18968Y11151D01*
X18957Y11202D01*
X18920Y11263D01*
X18892Y11329D01*
X18847Y11385D01*
X18831Y11413D01*
X18813Y11428D01*
X18787Y11460D01*
X17647Y12600D01*
X16255Y15961D01*
X16255Y34839D01*
X17647Y38200D01*
X20220Y40773D01*
X20357Y40829D01*
X20457Y40891D01*
X20557Y40951D01*
X20561Y40956D01*
X20566Y40959D01*
X20641Y41049D01*
X20717Y41138D01*
X20719Y41144D01*
X20723Y41148D01*
X20765Y41257D01*
X20809Y41366D01*
X20810Y41373D01*
X20811Y41378D01*
X20812Y41396D01*
X20827Y41533D01*
X20827Y51394D01*
X31702Y62269D01*
X31755Y62343D01*
X31815Y62413D01*
X31827Y62443D01*
X31846Y62469D01*
X31873Y62556D01*
X31907Y62641D01*
X31911Y62682D01*
X31918Y62704D01*
X31917Y62736D01*
X31925Y62807D01*
X31925Y68382D01*
X32818Y69275D01*
X42582Y69275D01*
X43512Y68345D01*
X43528Y68333D01*
X43540Y68317D01*
X43628Y68261D01*
X43711Y68201D01*
X43730Y68195D01*
X43747Y68184D01*
X43848Y68159D01*
X43947Y68129D01*
X43966Y68129D01*
X43986Y68124D01*
X44089Y68132D01*
X44192Y68135D01*
X44211Y68142D01*
X44231Y68143D01*
X44326Y68184D01*
X44423Y68219D01*
X44439Y68232D01*
X44457Y68240D01*
X44588Y68345D01*
X45518Y69275D01*
X55282Y69275D01*
X56212Y68345D01*
X56228Y68333D01*
X56240Y68317D01*
X56328Y68261D01*
X56411Y68201D01*
X56430Y68195D01*
X56447Y68184D01*
X56548Y68159D01*
X56647Y68129D01*
X56666Y68129D01*
X56686Y68124D01*
X56789Y68132D01*
X56892Y68135D01*
X56911Y68142D01*
X56931Y68143D01*
X57026Y68184D01*
X57123Y68219D01*
X57139Y68232D01*
X57157Y68240D01*
X57288Y68345D01*
X58218Y69275D01*
X67982Y69275D01*
X68875Y68382D01*
X68875Y62807D01*
X68889Y62717D01*
X68897Y62626D01*
X68909Y62597D01*
X68914Y62565D01*
X68957Y62484D01*
X68993Y62400D01*
X69019Y62368D01*
X69030Y62347D01*
X69053Y62325D01*
X69098Y62269D01*
X80773Y50594D01*
X80773Y41533D01*
X80792Y41418D01*
X80809Y41302D01*
X80811Y41296D01*
X80812Y41290D01*
X80867Y41187D01*
X80920Y41083D01*
X80925Y41078D01*
X80928Y41073D01*
X81012Y40992D01*
X81096Y40910D01*
X81102Y40907D01*
X81106Y40903D01*
X81123Y40895D01*
X81243Y40829D01*
X81380Y40773D01*
X83953Y38200D01*
X85345Y34839D01*
X85345Y15961D01*
X83953Y12600D01*
X82813Y11460D01*
X82771Y11402D01*
X82722Y11350D01*
X82700Y11303D01*
X82669Y11261D01*
X82648Y11192D01*
X82618Y11127D01*
X82612Y11075D01*
X82597Y11025D01*
X82599Y10954D01*
X82591Y10883D01*
X82602Y10832D01*
X82603Y10780D01*
X82628Y10712D01*
X82643Y10642D01*
X82670Y10597D01*
X82688Y10549D01*
X82733Y10493D01*
X82769Y10431D01*
X82809Y10397D01*
X82841Y10357D01*
X82902Y10318D01*
X82956Y10271D01*
X83005Y10252D01*
X83048Y10224D01*
X83118Y10206D01*
X83184Y10179D01*
X83256Y10171D01*
X83287Y10163D01*
X83310Y10165D01*
X83351Y10161D01*
X89078Y10161D01*
X89098Y10164D01*
X89117Y10162D01*
X89219Y10184D01*
X89321Y10200D01*
X89338Y10210D01*
X89358Y10214D01*
X89447Y10267D01*
X89538Y10316D01*
X89552Y10330D01*
X89569Y10340D01*
X89636Y10419D01*
X89708Y10494D01*
X89716Y10512D01*
X89729Y10527D01*
X89768Y10623D01*
X89811Y10717D01*
X89813Y10737D01*
X89821Y10755D01*
X89839Y10922D01*
X89839Y171078D01*
X89836Y171098D01*
X89838Y171117D01*
X89816Y171219D01*
X89800Y171321D01*
X89790Y171338D01*
X89786Y171358D01*
X89733Y171447D01*
X89684Y171538D01*
X89670Y171552D01*
X89660Y171569D01*
X89581Y171636D01*
X89506Y171708D01*
X89488Y171716D01*
X89473Y171729D01*
X89377Y171768D01*
X89283Y171811D01*
X89263Y171813D01*
X89245Y171821D01*
X89078Y171839D01*
X81851Y171839D01*
X81780Y171828D01*
X81709Y171826D01*
X81660Y171808D01*
X81608Y171800D01*
X81545Y171766D01*
X81478Y171741D01*
X81437Y171709D01*
X81391Y171684D01*
X81342Y171632D01*
X81286Y171588D01*
X81257Y171544D01*
X81222Y171506D01*
X81191Y171441D01*
X81153Y171381D01*
X81140Y171330D01*
X81118Y171283D01*
X81110Y171212D01*
X81093Y171142D01*
X81097Y171090D01*
X81091Y171039D01*
X81106Y170968D01*
X81112Y170897D01*
X81132Y170849D01*
X81143Y170798D01*
X81180Y170737D01*
X81208Y170671D01*
X81253Y170615D01*
X81269Y170587D01*
X81287Y170572D01*
X81313Y170540D01*
X83953Y167900D01*
X85345Y164539D01*
X85345Y145661D01*
X83953Y142300D01*
X81380Y139727D01*
X81243Y139671D01*
X81143Y139609D01*
X81043Y139549D01*
X81039Y139544D01*
X81034Y139541D01*
X80959Y139451D01*
X80883Y139362D01*
X80881Y139356D01*
X80877Y139352D01*
X80835Y139243D01*
X80791Y139134D01*
X80790Y139127D01*
X80789Y139122D01*
X80788Y139104D01*
X80773Y138967D01*
X80773Y137006D01*
X69098Y125331D01*
X69045Y125257D01*
X68985Y125187D01*
X68973Y125157D01*
X68954Y125131D01*
X68927Y125044D01*
X68893Y124959D01*
X68889Y124918D01*
X68882Y124896D01*
X68883Y124864D01*
X68875Y124793D01*
X68875Y119218D01*
X67982Y118325D01*
X58218Y118325D01*
X57288Y119255D01*
X57272Y119267D01*
X57260Y119283D01*
X57172Y119339D01*
X57089Y119399D01*
X57070Y119405D01*
X57053Y119416D01*
X56952Y119441D01*
X56853Y119471D01*
X56834Y119471D01*
X56814Y119476D01*
X56711Y119468D01*
X56608Y119465D01*
X56589Y119458D01*
X56569Y119457D01*
X56474Y119416D01*
X56377Y119381D01*
X56361Y119368D01*
X56343Y119360D01*
X56212Y119255D01*
X55282Y118325D01*
X45518Y118325D01*
X44588Y119255D01*
X44572Y119267D01*
X44560Y119283D01*
X44472Y119339D01*
X44389Y119399D01*
X44370Y119405D01*
X44353Y119416D01*
X44252Y119441D01*
X44153Y119471D01*
X44134Y119471D01*
X44114Y119476D01*
X44011Y119468D01*
X43908Y119465D01*
X43889Y119458D01*
X43869Y119457D01*
X43774Y119416D01*
X43677Y119381D01*
X43661Y119368D01*
X43643Y119360D01*
X43512Y119255D01*
X42582Y118325D01*
X32818Y118325D01*
X31925Y119218D01*
X31925Y124793D01*
X31911Y124883D01*
X31903Y124974D01*
X31891Y125003D01*
X31886Y125035D01*
X31843Y125116D01*
X31807Y125200D01*
X31781Y125232D01*
X31770Y125253D01*
X31747Y125275D01*
X31702Y125331D01*
X20827Y136206D01*
X20827Y138967D01*
X20808Y139082D01*
X20791Y139198D01*
X20789Y139204D01*
X20788Y139210D01*
X20733Y139313D01*
X20680Y139417D01*
X20675Y139422D01*
X20672Y139427D01*
X20588Y139508D01*
X20504Y139590D01*
X20498Y139593D01*
X20494Y139597D01*
X20477Y139605D01*
X20357Y139671D01*
X20220Y139727D01*
X17647Y142300D01*
X16255Y145661D01*
X16255Y164539D01*
X17647Y167900D01*
X20287Y170540D01*
X20329Y170598D01*
X20378Y170650D01*
X20400Y170697D01*
X20431Y170739D01*
X20452Y170808D01*
X20482Y170873D01*
X20488Y170925D01*
X20503Y170975D01*
X20501Y171046D01*
X20509Y171117D01*
X20498Y171168D01*
X20497Y171220D01*
X20472Y171288D01*
X20457Y171358D01*
X20430Y171403D01*
X20412Y171451D01*
X20367Y171507D01*
X20331Y171569D01*
X20291Y171603D01*
X20259Y171643D01*
X20198Y171682D01*
X20144Y171729D01*
X20095Y171748D01*
X20052Y171776D01*
X19982Y171794D01*
X19916Y171821D01*
X19844Y171829D01*
X19813Y171837D01*
X19790Y171835D01*
X19749Y171839D01*
X10922Y171839D01*
X10902Y171836D01*
X10883Y171838D01*
X10781Y171816D01*
X10679Y171800D01*
X10662Y171790D01*
X10642Y171786D01*
X10553Y171733D01*
X10462Y171684D01*
X10448Y171670D01*
X10431Y171660D01*
X10364Y171581D01*
X10292Y171506D01*
X10284Y171488D01*
X10271Y171473D01*
X10232Y171377D01*
X10189Y171283D01*
X10187Y171263D01*
X10179Y171245D01*
X10161Y171078D01*
X10161Y10922D01*
X10164Y10902D01*
X10162Y10883D01*
X10184Y10781D01*
X10200Y10679D01*
X10210Y10662D01*
X10214Y10642D01*
X10267Y10553D01*
X10316Y10462D01*
X10330Y10448D01*
X10340Y10431D01*
X10419Y10364D01*
X10494Y10292D01*
X10512Y10284D01*
X10527Y10271D01*
X10623Y10232D01*
X10717Y10189D01*
X10737Y10187D01*
X10755Y10179D01*
X10922Y10161D01*
X18249Y10161D01*
X18320Y10172D01*
G37*
G36*
X69120Y10172D02*
X69120Y10172D01*
X69191Y10174D01*
X69240Y10192D01*
X69292Y10200D01*
X69355Y10234D01*
X69422Y10259D01*
X69463Y10291D01*
X69509Y10316D01*
X69558Y10368D01*
X69614Y10412D01*
X69643Y10456D01*
X69678Y10494D01*
X69709Y10559D01*
X69747Y10619D01*
X69760Y10670D01*
X69782Y10717D01*
X69790Y10788D01*
X69807Y10858D01*
X69803Y10910D01*
X69809Y10961D01*
X69794Y11032D01*
X69788Y11103D01*
X69768Y11151D01*
X69757Y11202D01*
X69720Y11263D01*
X69692Y11329D01*
X69647Y11385D01*
X69631Y11413D01*
X69613Y11428D01*
X69587Y11460D01*
X68447Y12600D01*
X67055Y15961D01*
X67055Y34839D01*
X68447Y38200D01*
X71020Y40773D01*
X71157Y40829D01*
X71257Y40891D01*
X71357Y40951D01*
X71361Y40956D01*
X71366Y40959D01*
X71441Y41049D01*
X71517Y41138D01*
X71519Y41144D01*
X71523Y41148D01*
X71565Y41257D01*
X71609Y41366D01*
X71610Y41373D01*
X71611Y41378D01*
X71612Y41396D01*
X71627Y41533D01*
X71627Y46491D01*
X71613Y46581D01*
X71605Y46672D01*
X71593Y46701D01*
X71588Y46733D01*
X71545Y46814D01*
X71509Y46898D01*
X71483Y46930D01*
X71472Y46951D01*
X71449Y46973D01*
X71404Y47029D01*
X64331Y54102D01*
X64257Y54155D01*
X64187Y54215D01*
X64157Y54227D01*
X64131Y54246D01*
X64044Y54273D01*
X63959Y54307D01*
X63918Y54311D01*
X63896Y54318D01*
X63864Y54317D01*
X63793Y54325D01*
X58218Y54325D01*
X57288Y55255D01*
X57272Y55267D01*
X57260Y55283D01*
X57172Y55339D01*
X57089Y55399D01*
X57070Y55405D01*
X57053Y55416D01*
X56952Y55441D01*
X56853Y55471D01*
X56834Y55471D01*
X56814Y55476D01*
X56711Y55468D01*
X56608Y55465D01*
X56589Y55458D01*
X56569Y55457D01*
X56474Y55416D01*
X56377Y55381D01*
X56361Y55368D01*
X56343Y55360D01*
X56212Y55255D01*
X55196Y54239D01*
X55143Y54165D01*
X55083Y54096D01*
X55071Y54066D01*
X55052Y54040D01*
X55025Y53953D01*
X54991Y53868D01*
X54987Y53827D01*
X54980Y53805D01*
X54981Y53772D01*
X54973Y53701D01*
X54973Y41698D01*
X54991Y41584D01*
X55009Y41467D01*
X55011Y41462D01*
X55012Y41456D01*
X55067Y41353D01*
X55120Y41248D01*
X55125Y41244D01*
X55128Y41238D01*
X55213Y41158D01*
X55296Y41076D01*
X55302Y41072D01*
X55306Y41069D01*
X55323Y41061D01*
X55443Y40995D01*
X55980Y40773D01*
X58553Y38200D01*
X59945Y34839D01*
X59945Y15961D01*
X58553Y12600D01*
X57413Y11460D01*
X57371Y11402D01*
X57322Y11350D01*
X57300Y11303D01*
X57269Y11261D01*
X57248Y11192D01*
X57218Y11127D01*
X57212Y11075D01*
X57197Y11025D01*
X57199Y10954D01*
X57191Y10883D01*
X57202Y10832D01*
X57203Y10780D01*
X57228Y10712D01*
X57243Y10642D01*
X57270Y10597D01*
X57288Y10549D01*
X57333Y10493D01*
X57369Y10431D01*
X57409Y10397D01*
X57441Y10357D01*
X57502Y10318D01*
X57556Y10271D01*
X57605Y10252D01*
X57648Y10224D01*
X57718Y10206D01*
X57784Y10179D01*
X57856Y10171D01*
X57887Y10163D01*
X57910Y10165D01*
X57951Y10161D01*
X69049Y10161D01*
X69120Y10172D01*
G37*
G36*
X43720Y10172D02*
X43720Y10172D01*
X43791Y10174D01*
X43840Y10192D01*
X43892Y10200D01*
X43955Y10234D01*
X44022Y10259D01*
X44063Y10291D01*
X44109Y10316D01*
X44158Y10368D01*
X44214Y10412D01*
X44243Y10456D01*
X44278Y10494D01*
X44309Y10559D01*
X44347Y10619D01*
X44360Y10670D01*
X44382Y10717D01*
X44390Y10788D01*
X44407Y10858D01*
X44403Y10910D01*
X44409Y10961D01*
X44394Y11032D01*
X44388Y11103D01*
X44368Y11151D01*
X44357Y11202D01*
X44320Y11263D01*
X44292Y11329D01*
X44247Y11385D01*
X44231Y11413D01*
X44213Y11428D01*
X44187Y11460D01*
X43047Y12600D01*
X41655Y15961D01*
X41655Y34839D01*
X43047Y38200D01*
X45604Y40757D01*
X45657Y40831D01*
X45717Y40900D01*
X45729Y40930D01*
X45748Y40957D01*
X45775Y41044D01*
X45809Y41128D01*
X45813Y41169D01*
X45820Y41192D01*
X45819Y41224D01*
X45827Y41295D01*
X45827Y53701D01*
X45813Y53791D01*
X45805Y53882D01*
X45793Y53912D01*
X45788Y53944D01*
X45745Y54025D01*
X45709Y54108D01*
X45683Y54141D01*
X45672Y54161D01*
X45649Y54183D01*
X45604Y54239D01*
X44588Y55255D01*
X44572Y55267D01*
X44560Y55283D01*
X44472Y55339D01*
X44389Y55399D01*
X44370Y55405D01*
X44353Y55416D01*
X44252Y55441D01*
X44153Y55471D01*
X44134Y55471D01*
X44114Y55476D01*
X44011Y55468D01*
X43908Y55465D01*
X43889Y55458D01*
X43869Y55457D01*
X43774Y55416D01*
X43677Y55381D01*
X43661Y55368D01*
X43643Y55360D01*
X43512Y55255D01*
X42582Y54325D01*
X37007Y54325D01*
X36917Y54311D01*
X36826Y54303D01*
X36797Y54291D01*
X36765Y54286D01*
X36684Y54243D01*
X36600Y54207D01*
X36568Y54181D01*
X36547Y54170D01*
X36536Y54159D01*
X36535Y54158D01*
X36523Y54145D01*
X36469Y54102D01*
X30196Y47829D01*
X30143Y47755D01*
X30083Y47685D01*
X30071Y47655D01*
X30052Y47629D01*
X30025Y47542D01*
X29991Y47457D01*
X29987Y47416D01*
X29980Y47394D01*
X29981Y47362D01*
X29973Y47291D01*
X29973Y41533D01*
X29992Y41418D01*
X30009Y41302D01*
X30011Y41296D01*
X30012Y41290D01*
X30067Y41187D01*
X30120Y41083D01*
X30125Y41078D01*
X30128Y41073D01*
X30212Y40992D01*
X30296Y40910D01*
X30302Y40907D01*
X30306Y40903D01*
X30323Y40895D01*
X30443Y40829D01*
X30580Y40773D01*
X33153Y38200D01*
X34545Y34839D01*
X34545Y15961D01*
X33153Y12600D01*
X32013Y11460D01*
X31971Y11402D01*
X31922Y11350D01*
X31900Y11303D01*
X31869Y11261D01*
X31848Y11192D01*
X31818Y11127D01*
X31812Y11075D01*
X31797Y11025D01*
X31799Y10954D01*
X31791Y10883D01*
X31802Y10832D01*
X31803Y10780D01*
X31828Y10712D01*
X31843Y10642D01*
X31870Y10597D01*
X31888Y10549D01*
X31933Y10493D01*
X31969Y10431D01*
X32009Y10397D01*
X32041Y10357D01*
X32102Y10318D01*
X32156Y10271D01*
X32205Y10252D01*
X32248Y10224D01*
X32318Y10206D01*
X32384Y10179D01*
X32456Y10171D01*
X32487Y10163D01*
X32510Y10165D01*
X32551Y10161D01*
X43649Y10161D01*
X43720Y10172D01*
G37*
G36*
X44089Y132132D02*
X44089Y132132D01*
X44192Y132135D01*
X44211Y132142D01*
X44231Y132143D01*
X44326Y132184D01*
X44423Y132219D01*
X44439Y132232D01*
X44457Y132240D01*
X44588Y132345D01*
X45523Y133280D01*
X45607Y133298D01*
X45709Y133314D01*
X45726Y133324D01*
X45746Y133328D01*
X45835Y133381D01*
X45926Y133430D01*
X45940Y133444D01*
X45957Y133454D01*
X46024Y133533D01*
X46096Y133608D01*
X46104Y133626D01*
X46117Y133641D01*
X46156Y133737D01*
X46199Y133831D01*
X46201Y133851D01*
X46209Y133869D01*
X46227Y134036D01*
X46227Y138967D01*
X46208Y139082D01*
X46191Y139198D01*
X46189Y139204D01*
X46188Y139210D01*
X46133Y139313D01*
X46080Y139417D01*
X46075Y139422D01*
X46072Y139427D01*
X45988Y139508D01*
X45904Y139590D01*
X45898Y139593D01*
X45894Y139597D01*
X45877Y139605D01*
X45757Y139671D01*
X45620Y139727D01*
X43047Y142300D01*
X41655Y145661D01*
X41655Y164539D01*
X43047Y167900D01*
X45687Y170540D01*
X45729Y170598D01*
X45778Y170650D01*
X45800Y170697D01*
X45831Y170739D01*
X45852Y170808D01*
X45882Y170873D01*
X45888Y170925D01*
X45903Y170975D01*
X45901Y171046D01*
X45909Y171117D01*
X45898Y171168D01*
X45897Y171220D01*
X45872Y171288D01*
X45857Y171358D01*
X45830Y171403D01*
X45812Y171451D01*
X45767Y171507D01*
X45731Y171569D01*
X45691Y171603D01*
X45659Y171643D01*
X45598Y171682D01*
X45544Y171729D01*
X45495Y171748D01*
X45452Y171776D01*
X45382Y171794D01*
X45316Y171821D01*
X45244Y171829D01*
X45213Y171837D01*
X45190Y171835D01*
X45149Y171839D01*
X31051Y171839D01*
X30980Y171828D01*
X30909Y171826D01*
X30860Y171808D01*
X30808Y171800D01*
X30745Y171766D01*
X30678Y171741D01*
X30637Y171709D01*
X30591Y171684D01*
X30542Y171632D01*
X30486Y171588D01*
X30457Y171544D01*
X30422Y171506D01*
X30391Y171441D01*
X30353Y171381D01*
X30340Y171330D01*
X30318Y171283D01*
X30310Y171212D01*
X30293Y171142D01*
X30297Y171090D01*
X30291Y171039D01*
X30306Y170968D01*
X30312Y170897D01*
X30332Y170849D01*
X30343Y170798D01*
X30380Y170737D01*
X30408Y170671D01*
X30453Y170615D01*
X30469Y170587D01*
X30487Y170572D01*
X30513Y170540D01*
X33153Y167900D01*
X34545Y164539D01*
X34545Y145661D01*
X33153Y142300D01*
X30948Y140095D01*
X30936Y140079D01*
X30921Y140067D01*
X30891Y140020D01*
X30873Y140001D01*
X30859Y139972D01*
X30804Y139896D01*
X30799Y139877D01*
X30788Y139860D01*
X30763Y139759D01*
X30732Y139661D01*
X30733Y139641D01*
X30728Y139621D01*
X30736Y139518D01*
X30738Y139415D01*
X30745Y139396D01*
X30747Y139376D01*
X30787Y139281D01*
X30823Y139184D01*
X30835Y139168D01*
X30843Y139150D01*
X30948Y139019D01*
X36469Y133498D01*
X36543Y133445D01*
X36613Y133385D01*
X36643Y133373D01*
X36669Y133354D01*
X36756Y133327D01*
X36841Y133293D01*
X36882Y133289D01*
X36904Y133282D01*
X36936Y133283D01*
X37007Y133275D01*
X42582Y133275D01*
X43512Y132345D01*
X43528Y132333D01*
X43540Y132317D01*
X43628Y132261D01*
X43711Y132201D01*
X43730Y132195D01*
X43747Y132184D01*
X43848Y132159D01*
X43947Y132129D01*
X43966Y132129D01*
X43986Y132124D01*
X44089Y132132D01*
G37*
G36*
X56789Y132132D02*
X56789Y132132D01*
X56892Y132135D01*
X56911Y132142D01*
X56931Y132143D01*
X57026Y132184D01*
X57123Y132220D01*
X57139Y132232D01*
X57157Y132240D01*
X57288Y132345D01*
X58218Y133275D01*
X63793Y133275D01*
X63883Y133289D01*
X63974Y133297D01*
X64003Y133309D01*
X64035Y133314D01*
X64116Y133357D01*
X64200Y133393D01*
X64232Y133419D01*
X64253Y133430D01*
X64275Y133453D01*
X64331Y133498D01*
X70252Y139419D01*
X70264Y139435D01*
X70279Y139447D01*
X70335Y139535D01*
X70396Y139619D01*
X70401Y139638D01*
X70412Y139654D01*
X70437Y139755D01*
X70468Y139854D01*
X70467Y139874D01*
X70472Y139893D01*
X70464Y139996D01*
X70462Y140100D01*
X70455Y140118D01*
X70453Y140138D01*
X70413Y140233D01*
X70377Y140331D01*
X70365Y140346D01*
X70357Y140364D01*
X70252Y140495D01*
X68447Y142300D01*
X67055Y145661D01*
X67055Y164539D01*
X68447Y167900D01*
X71087Y170540D01*
X71129Y170598D01*
X71178Y170650D01*
X71200Y170697D01*
X71231Y170739D01*
X71252Y170808D01*
X71282Y170873D01*
X71288Y170925D01*
X71303Y170975D01*
X71301Y171046D01*
X71309Y171117D01*
X71298Y171168D01*
X71297Y171220D01*
X71272Y171288D01*
X71257Y171358D01*
X71230Y171403D01*
X71212Y171451D01*
X71167Y171507D01*
X71131Y171569D01*
X71091Y171603D01*
X71059Y171643D01*
X70998Y171682D01*
X70944Y171729D01*
X70895Y171748D01*
X70852Y171776D01*
X70782Y171794D01*
X70716Y171821D01*
X70644Y171829D01*
X70613Y171837D01*
X70590Y171835D01*
X70549Y171839D01*
X56451Y171839D01*
X56380Y171828D01*
X56309Y171826D01*
X56260Y171808D01*
X56208Y171800D01*
X56145Y171766D01*
X56078Y171741D01*
X56037Y171709D01*
X55991Y171684D01*
X55942Y171632D01*
X55886Y171588D01*
X55857Y171544D01*
X55822Y171506D01*
X55791Y171441D01*
X55753Y171381D01*
X55740Y171330D01*
X55718Y171283D01*
X55710Y171212D01*
X55693Y171142D01*
X55697Y171090D01*
X55691Y171039D01*
X55706Y170968D01*
X55712Y170897D01*
X55732Y170849D01*
X55743Y170798D01*
X55780Y170737D01*
X55808Y170671D01*
X55853Y170615D01*
X55869Y170587D01*
X55887Y170572D01*
X55913Y170540D01*
X58553Y167900D01*
X59945Y164539D01*
X59945Y145661D01*
X58553Y142300D01*
X55980Y139727D01*
X55843Y139671D01*
X55743Y139609D01*
X55643Y139549D01*
X55639Y139544D01*
X55634Y139541D01*
X55559Y139451D01*
X55483Y139362D01*
X55481Y139356D01*
X55477Y139352D01*
X55435Y139243D01*
X55391Y139134D01*
X55390Y139127D01*
X55389Y139122D01*
X55388Y139104D01*
X55373Y138967D01*
X55373Y133499D01*
X55387Y133409D01*
X55395Y133318D01*
X55407Y133288D01*
X55412Y133256D01*
X55455Y133176D01*
X55491Y133092D01*
X55517Y133059D01*
X55528Y133039D01*
X55551Y133017D01*
X55561Y133004D01*
X55568Y132992D01*
X55576Y132986D01*
X55596Y132961D01*
X56212Y132345D01*
X56228Y132333D01*
X56240Y132317D01*
X56327Y132262D01*
X56411Y132201D01*
X56431Y132195D01*
X56447Y132184D01*
X56548Y132159D01*
X56647Y132129D01*
X56666Y132129D01*
X56686Y132124D01*
X56789Y132132D01*
G37*
D10*
X76200Y33020D02*
X76200Y17780D01*
X50800Y17780D02*
X50800Y33020D01*
X25400Y33020D02*
X25400Y17780D01*
X25400Y147480D02*
X25400Y162720D01*
X50800Y162720D02*
X50800Y147480D01*
X76200Y147480D02*
X76200Y162720D01*
D11*
X63100Y125800D03*
X50400Y125800D03*
X37700Y125800D03*
X63100Y61800D03*
X50400Y61800D03*
X37700Y61800D03*
D12*
X76200Y138900D02*
X76200Y155100D01*
X76200Y138900D02*
X63100Y125800D01*
X50800Y126200D02*
X50800Y155100D01*
X50800Y126200D02*
X50400Y125800D01*
X37700Y125800D02*
X25400Y138100D01*
X25400Y155100D01*
X63100Y61800D02*
X76200Y48700D01*
X76200Y25400D01*
X50400Y25800D02*
X50400Y61800D01*
X50400Y25800D02*
X50800Y25400D01*
X25400Y49500D02*
X37700Y61800D01*
X25400Y49500D02*
X25400Y25400D01*
M02*
