G04 EAGLE Gerber RS-274X export*
G75*
%MOMM*%
%FSLAX34Y34*%
%LPD*%
%INSilkscreen Top*%
%IPPOS*%
%AMOC8*
5,1,8,0,0,1.08239X$1,22.5*%
G01*
%ADD10C,0.152400*%
%ADD11C,0.127000*%
%ADD12C,0.101600*%


D10*
X82550Y12700D02*
X69850Y12700D01*
X63500Y19050D01*
X63500Y31750D02*
X69850Y38100D01*
X63500Y19050D02*
X57150Y12700D01*
X44450Y12700D01*
X38100Y19050D01*
X38100Y31750D02*
X44450Y38100D01*
X57150Y38100D01*
X63500Y31750D01*
X88900Y31750D02*
X88900Y19050D01*
X82550Y12700D01*
X88900Y31750D02*
X82550Y38100D01*
X69850Y38100D01*
X38100Y19050D02*
X31750Y12700D01*
X19050Y12700D01*
X12700Y19050D01*
X12700Y31750D02*
X19050Y38100D01*
X31750Y38100D01*
X38100Y31750D01*
X12700Y31750D02*
X12700Y19050D01*
D11*
X94615Y28575D02*
X97790Y31115D01*
X97790Y19685D01*
X94615Y19685D02*
X100965Y19685D01*
X65786Y-635D02*
X65784Y-735D01*
X65778Y-834D01*
X65768Y-934D01*
X65755Y-1032D01*
X65737Y-1131D01*
X65716Y-1228D01*
X65691Y-1324D01*
X65662Y-1420D01*
X65629Y-1514D01*
X65593Y-1607D01*
X65553Y-1698D01*
X65509Y-1788D01*
X65462Y-1876D01*
X65412Y-1962D01*
X65358Y-2046D01*
X65301Y-2128D01*
X65241Y-2207D01*
X65177Y-2285D01*
X65111Y-2359D01*
X65042Y-2431D01*
X64970Y-2500D01*
X64896Y-2566D01*
X64818Y-2630D01*
X64739Y-2690D01*
X64657Y-2747D01*
X64573Y-2801D01*
X64487Y-2851D01*
X64399Y-2898D01*
X64309Y-2942D01*
X64218Y-2982D01*
X64125Y-3018D01*
X64031Y-3051D01*
X63935Y-3080D01*
X63839Y-3105D01*
X63742Y-3126D01*
X63643Y-3144D01*
X63545Y-3157D01*
X63445Y-3167D01*
X63346Y-3173D01*
X63246Y-3175D01*
X63105Y-3173D01*
X62964Y-3168D01*
X62823Y-3158D01*
X62682Y-3145D01*
X62542Y-3129D01*
X62402Y-3108D01*
X62263Y-3084D01*
X62124Y-3056D01*
X61987Y-3025D01*
X61850Y-2990D01*
X61714Y-2952D01*
X61579Y-2910D01*
X61446Y-2864D01*
X61313Y-2815D01*
X61182Y-2762D01*
X61053Y-2706D01*
X60924Y-2647D01*
X60798Y-2584D01*
X60673Y-2518D01*
X60550Y-2449D01*
X60429Y-2376D01*
X60310Y-2300D01*
X60192Y-2221D01*
X60077Y-2140D01*
X59965Y-2055D01*
X59854Y-1967D01*
X59746Y-1876D01*
X59640Y-1783D01*
X59537Y-1686D01*
X59436Y-1587D01*
X59754Y5715D02*
X59756Y5815D01*
X59762Y5914D01*
X59772Y6014D01*
X59785Y6112D01*
X59803Y6211D01*
X59824Y6308D01*
X59849Y6404D01*
X59878Y6500D01*
X59911Y6594D01*
X59947Y6687D01*
X59987Y6778D01*
X60031Y6868D01*
X60078Y6956D01*
X60128Y7042D01*
X60182Y7126D01*
X60239Y7208D01*
X60299Y7287D01*
X60363Y7365D01*
X60429Y7439D01*
X60498Y7511D01*
X60570Y7580D01*
X60644Y7646D01*
X60722Y7710D01*
X60801Y7770D01*
X60883Y7827D01*
X60967Y7881D01*
X61053Y7931D01*
X61141Y7978D01*
X61231Y8022D01*
X61322Y8062D01*
X61415Y8098D01*
X61509Y8131D01*
X61605Y8160D01*
X61701Y8185D01*
X61798Y8206D01*
X61897Y8224D01*
X61995Y8237D01*
X62095Y8247D01*
X62194Y8253D01*
X62294Y8255D01*
X62294Y8256D02*
X62427Y8254D01*
X62560Y8249D01*
X62693Y8239D01*
X62826Y8226D01*
X62958Y8209D01*
X63090Y8189D01*
X63221Y8165D01*
X63351Y8137D01*
X63481Y8106D01*
X63609Y8071D01*
X63737Y8032D01*
X63863Y7990D01*
X63988Y7944D01*
X64112Y7895D01*
X64235Y7843D01*
X64356Y7787D01*
X64475Y7727D01*
X64593Y7665D01*
X64708Y7599D01*
X64822Y7530D01*
X64934Y7457D01*
X65044Y7382D01*
X65152Y7303D01*
X61023Y3492D02*
X60939Y3544D01*
X60856Y3599D01*
X60776Y3658D01*
X60698Y3719D01*
X60623Y3783D01*
X60550Y3851D01*
X60479Y3921D01*
X60412Y3993D01*
X60347Y4068D01*
X60285Y4146D01*
X60226Y4226D01*
X60170Y4308D01*
X60118Y4392D01*
X60069Y4478D01*
X60023Y4566D01*
X59980Y4656D01*
X59941Y4747D01*
X59906Y4840D01*
X59874Y4934D01*
X59846Y5029D01*
X59821Y5125D01*
X59801Y5222D01*
X59783Y5320D01*
X59770Y5418D01*
X59761Y5517D01*
X59755Y5616D01*
X59753Y5715D01*
X64516Y1588D02*
X64600Y1536D01*
X64683Y1481D01*
X64763Y1422D01*
X64841Y1361D01*
X64916Y1297D01*
X64989Y1229D01*
X65060Y1159D01*
X65127Y1087D01*
X65192Y1012D01*
X65254Y934D01*
X65313Y854D01*
X65369Y772D01*
X65421Y688D01*
X65470Y602D01*
X65516Y514D01*
X65559Y424D01*
X65598Y333D01*
X65633Y240D01*
X65665Y146D01*
X65693Y51D01*
X65718Y-45D01*
X65738Y-142D01*
X65756Y-240D01*
X65769Y-338D01*
X65778Y-437D01*
X65784Y-536D01*
X65786Y-635D01*
X64516Y1588D02*
X61024Y3493D01*
X69850Y8255D02*
X73660Y-3175D01*
X77470Y8255D01*
X81915Y5715D02*
X85090Y8255D01*
X85090Y-3175D01*
X81915Y-3175D02*
X88265Y-3175D01*
D10*
X31750Y167800D02*
X19050Y167800D01*
X31750Y167800D02*
X38100Y161450D01*
X38100Y148750D02*
X31750Y142400D01*
X38100Y161450D02*
X44450Y167800D01*
X57150Y167800D01*
X63500Y161450D01*
X63500Y148750D02*
X57150Y142400D01*
X44450Y142400D01*
X38100Y148750D01*
X12700Y148750D02*
X12700Y161450D01*
X19050Y167800D01*
X12700Y148750D02*
X19050Y142400D01*
X31750Y142400D01*
X63500Y161450D02*
X69850Y167800D01*
X82550Y167800D01*
X88900Y161450D01*
X88900Y148750D02*
X82550Y142400D01*
X69850Y142400D01*
X63500Y148750D01*
X88900Y148750D02*
X88900Y161450D01*
D11*
X3810Y160815D02*
X635Y158275D01*
X3810Y160815D02*
X3810Y149385D01*
X635Y149385D02*
X6985Y149385D01*
X17145Y172245D02*
X17245Y172247D01*
X17344Y172253D01*
X17444Y172263D01*
X17542Y172276D01*
X17641Y172294D01*
X17738Y172315D01*
X17834Y172340D01*
X17930Y172369D01*
X18024Y172402D01*
X18117Y172438D01*
X18208Y172478D01*
X18298Y172522D01*
X18386Y172569D01*
X18472Y172619D01*
X18556Y172673D01*
X18638Y172730D01*
X18717Y172790D01*
X18795Y172854D01*
X18869Y172920D01*
X18941Y172989D01*
X19010Y173061D01*
X19076Y173135D01*
X19140Y173213D01*
X19200Y173292D01*
X19257Y173374D01*
X19311Y173458D01*
X19361Y173544D01*
X19408Y173632D01*
X19452Y173722D01*
X19492Y173813D01*
X19528Y173906D01*
X19561Y174000D01*
X19590Y174096D01*
X19615Y174192D01*
X19636Y174289D01*
X19654Y174388D01*
X19667Y174486D01*
X19677Y174586D01*
X19683Y174685D01*
X19685Y174785D01*
X17145Y172245D02*
X17004Y172247D01*
X16863Y172252D01*
X16722Y172262D01*
X16581Y172275D01*
X16441Y172291D01*
X16301Y172312D01*
X16162Y172336D01*
X16023Y172364D01*
X15886Y172395D01*
X15749Y172430D01*
X15613Y172468D01*
X15478Y172510D01*
X15345Y172556D01*
X15212Y172605D01*
X15081Y172658D01*
X14952Y172714D01*
X14823Y172773D01*
X14697Y172836D01*
X14572Y172902D01*
X14449Y172971D01*
X14328Y173044D01*
X14209Y173120D01*
X14091Y173199D01*
X13976Y173280D01*
X13864Y173365D01*
X13753Y173453D01*
X13645Y173544D01*
X13539Y173637D01*
X13436Y173734D01*
X13335Y173833D01*
X13653Y181135D02*
X13655Y181235D01*
X13661Y181334D01*
X13671Y181434D01*
X13684Y181532D01*
X13702Y181631D01*
X13723Y181728D01*
X13748Y181824D01*
X13777Y181920D01*
X13810Y182014D01*
X13846Y182107D01*
X13886Y182198D01*
X13930Y182288D01*
X13977Y182376D01*
X14027Y182462D01*
X14081Y182546D01*
X14138Y182628D01*
X14198Y182707D01*
X14262Y182785D01*
X14328Y182859D01*
X14397Y182931D01*
X14469Y183000D01*
X14543Y183066D01*
X14621Y183130D01*
X14700Y183190D01*
X14782Y183247D01*
X14866Y183301D01*
X14952Y183351D01*
X15040Y183398D01*
X15130Y183442D01*
X15221Y183482D01*
X15314Y183518D01*
X15408Y183551D01*
X15504Y183580D01*
X15600Y183605D01*
X15697Y183626D01*
X15796Y183644D01*
X15894Y183657D01*
X15994Y183667D01*
X16093Y183673D01*
X16193Y183675D01*
X16193Y183676D02*
X16326Y183674D01*
X16459Y183669D01*
X16592Y183659D01*
X16725Y183646D01*
X16857Y183629D01*
X16989Y183609D01*
X17120Y183585D01*
X17250Y183557D01*
X17380Y183526D01*
X17508Y183491D01*
X17636Y183452D01*
X17762Y183410D01*
X17887Y183364D01*
X18011Y183315D01*
X18134Y183263D01*
X18255Y183207D01*
X18374Y183147D01*
X18492Y183085D01*
X18607Y183019D01*
X18721Y182950D01*
X18833Y182877D01*
X18943Y182802D01*
X19051Y182723D01*
X14922Y178912D02*
X14838Y178964D01*
X14755Y179019D01*
X14675Y179078D01*
X14597Y179139D01*
X14522Y179203D01*
X14449Y179271D01*
X14378Y179341D01*
X14311Y179413D01*
X14246Y179488D01*
X14184Y179566D01*
X14125Y179646D01*
X14069Y179728D01*
X14017Y179812D01*
X13968Y179898D01*
X13922Y179986D01*
X13879Y180076D01*
X13840Y180167D01*
X13805Y180260D01*
X13773Y180354D01*
X13745Y180449D01*
X13720Y180545D01*
X13700Y180642D01*
X13682Y180740D01*
X13669Y180838D01*
X13660Y180937D01*
X13654Y181036D01*
X13652Y181135D01*
X18415Y177008D02*
X18499Y176956D01*
X18582Y176901D01*
X18662Y176842D01*
X18740Y176781D01*
X18815Y176717D01*
X18888Y176649D01*
X18959Y176579D01*
X19026Y176507D01*
X19091Y176432D01*
X19153Y176354D01*
X19212Y176274D01*
X19268Y176192D01*
X19320Y176108D01*
X19369Y176022D01*
X19415Y175934D01*
X19458Y175844D01*
X19497Y175753D01*
X19532Y175660D01*
X19564Y175566D01*
X19592Y175471D01*
X19617Y175375D01*
X19637Y175278D01*
X19655Y175180D01*
X19668Y175082D01*
X19677Y174983D01*
X19683Y174884D01*
X19685Y174785D01*
X18415Y177008D02*
X14923Y178913D01*
X23749Y183675D02*
X27559Y172245D01*
X31369Y183675D01*
X39307Y183676D02*
X39411Y183674D01*
X39516Y183668D01*
X39620Y183659D01*
X39723Y183646D01*
X39826Y183628D01*
X39928Y183608D01*
X40030Y183583D01*
X40130Y183555D01*
X40230Y183523D01*
X40328Y183487D01*
X40425Y183448D01*
X40520Y183406D01*
X40614Y183360D01*
X40706Y183310D01*
X40796Y183258D01*
X40884Y183202D01*
X40970Y183142D01*
X41054Y183080D01*
X41135Y183015D01*
X41214Y182947D01*
X41291Y182875D01*
X41364Y182802D01*
X41436Y182725D01*
X41504Y182646D01*
X41569Y182565D01*
X41631Y182481D01*
X41691Y182395D01*
X41747Y182307D01*
X41799Y182217D01*
X41849Y182125D01*
X41895Y182031D01*
X41937Y181936D01*
X41976Y181839D01*
X42012Y181741D01*
X42044Y181641D01*
X42072Y181541D01*
X42097Y181439D01*
X42117Y181337D01*
X42135Y181234D01*
X42148Y181131D01*
X42157Y181027D01*
X42163Y180922D01*
X42165Y180818D01*
X39307Y183675D02*
X39189Y183673D01*
X39070Y183667D01*
X38952Y183658D01*
X38835Y183645D01*
X38718Y183627D01*
X38601Y183607D01*
X38485Y183582D01*
X38370Y183554D01*
X38257Y183521D01*
X38144Y183486D01*
X38032Y183446D01*
X37922Y183404D01*
X37813Y183357D01*
X37705Y183307D01*
X37600Y183254D01*
X37496Y183197D01*
X37394Y183137D01*
X37294Y183074D01*
X37196Y183007D01*
X37100Y182938D01*
X37007Y182865D01*
X36916Y182789D01*
X36827Y182711D01*
X36741Y182629D01*
X36658Y182545D01*
X36577Y182459D01*
X36500Y182369D01*
X36425Y182278D01*
X36353Y182184D01*
X36284Y182087D01*
X36219Y181989D01*
X36156Y181888D01*
X36097Y181785D01*
X36041Y181681D01*
X35989Y181575D01*
X35940Y181467D01*
X35895Y181358D01*
X35853Y181247D01*
X35815Y181135D01*
X41212Y178596D02*
X41288Y178671D01*
X41363Y178750D01*
X41434Y178831D01*
X41503Y178915D01*
X41568Y179001D01*
X41630Y179089D01*
X41690Y179179D01*
X41746Y179271D01*
X41799Y179366D01*
X41848Y179462D01*
X41894Y179560D01*
X41937Y179659D01*
X41976Y179760D01*
X42011Y179862D01*
X42043Y179965D01*
X42071Y180069D01*
X42096Y180174D01*
X42117Y180281D01*
X42134Y180387D01*
X42147Y180494D01*
X42156Y180602D01*
X42162Y180710D01*
X42164Y180818D01*
X41212Y178595D02*
X35814Y172245D01*
X42164Y172245D01*
X25400Y114300D02*
X75400Y114300D01*
X25400Y114300D02*
X25400Y73300D01*
X76200Y73300D02*
X76200Y114300D01*
X75400Y73300D02*
X25400Y73300D01*
D12*
X86120Y120325D02*
X86445Y120325D01*
X80603Y121948D02*
X80533Y121946D01*
X80463Y121940D01*
X80393Y121931D01*
X80324Y121918D01*
X80256Y121901D01*
X80189Y121880D01*
X80123Y121856D01*
X80058Y121828D01*
X79995Y121797D01*
X79934Y121762D01*
X79875Y121724D01*
X79817Y121683D01*
X79763Y121639D01*
X79710Y121592D01*
X79661Y121543D01*
X79614Y121490D01*
X79570Y121436D01*
X79529Y121378D01*
X79491Y121319D01*
X79456Y121258D01*
X79425Y121195D01*
X79397Y121130D01*
X79373Y121064D01*
X79352Y120997D01*
X79335Y120929D01*
X79322Y120860D01*
X79313Y120790D01*
X79307Y120720D01*
X79305Y120650D01*
X79307Y120522D01*
X79313Y120394D01*
X79322Y120266D01*
X79336Y120139D01*
X79354Y120012D01*
X79375Y119886D01*
X79400Y119760D01*
X79429Y119635D01*
X79462Y119511D01*
X79498Y119388D01*
X79538Y119267D01*
X79582Y119146D01*
X79630Y119027D01*
X80603Y121949D02*
X80678Y121947D01*
X80752Y121942D01*
X80826Y121934D01*
X80900Y121922D01*
X80973Y121906D01*
X81045Y121888D01*
X81116Y121866D01*
X81186Y121840D01*
X81255Y121812D01*
X81323Y121781D01*
X81389Y121746D01*
X81454Y121708D01*
X81516Y121668D01*
X81577Y121624D01*
X81576Y121624D02*
X81657Y121561D01*
X81736Y121496D01*
X81813Y121428D01*
X81887Y121358D01*
X81960Y121286D01*
X82030Y121211D01*
X82098Y121134D01*
X82163Y121055D01*
X82225Y120974D01*
X82226Y120975D02*
X82275Y120913D01*
X82327Y120852D01*
X82381Y120795D01*
X82438Y120739D01*
X82498Y120687D01*
X82560Y120637D01*
X82624Y120590D01*
X82690Y120546D01*
X82758Y120505D01*
X82828Y120467D01*
X82900Y120432D01*
X82973Y120400D01*
X83047Y120372D01*
X83122Y120347D01*
X83199Y120326D01*
X83199Y120325D02*
X83848Y120325D01*
X82550Y126492D02*
X92287Y120325D01*
X82550Y126492D02*
X72813Y120325D01*
X82550Y114159D01*
X92287Y120325D01*
M02*
